HIERARCHY
ROOT Hips
{
	OFFSET 53.669998 14.253890 58.924004
	CHANNELS 6 Xposition Yposition Zposition Xrotation Yrotation Zrotation
	JOINT spine
	{
		OFFSET 0.000000 -0.429886 7.475594
		CHANNELS 3 Xrotation Yrotation Zrotation
		JOINT spine1
		{
			OFFSET 0.000000 -0.000002 9.923012
			CHANNELS 3 Xrotation Yrotation Zrotation
			JOINT spine2
			{
				OFFSET 0.000000 -0.000002 9.508041
				CHANNELS 3 Xrotation Yrotation Zrotation
				JOINT Neck
				{
					OFFSET 0.000000 -1.163844 24.411102
					CHANNELS 3 Xrotation Yrotation Zrotation
					JOINT Head
					{
						OFFSET 0.000000 -0.000001 7.375229
						CHANNELS 3 Xrotation Yrotation Zrotation
						End Site
						{
							OFFSET 0.000000 5.887406 17.852196
						}
					}
				}
				JOINT RightShoulder
				{
					OFFSET -4.003559 0.557467 10.267899
					CHANNELS 3 Xrotation Yrotation Zrotation
					JOINT RightArm
					{
						OFFSET 0.000000 -0.000003 13.467300
						CHANNELS 3 Xrotation Yrotation Zrotation
						JOINT RightArmRoll
						{
							OFFSET 0.000000 -0.000001 6.798576
							CHANNELS 3 Xrotation Yrotation Zrotation
							JOINT RightForeArm
							{
								OFFSET 0.000000 -0.000003 19.801804
								CHANNELS 3 Xrotation Yrotation Zrotation
								JOINT RightForeArmRoll
								{
									OFFSET 0.000000 -0.000002 7.629044
									CHANNELS 3 Xrotation Yrotation Zrotation
									JOINT RightHand
									{
										OFFSET 0.000000 -0.000002 15.309799
										CHANNELS 3 Xrotation Yrotation Zrotation
										End Site
										{
											OFFSET 0.000000 0.000000 0.100006
										}
									}
								}
							}
						}
					}
				}
				JOINT LeftShoulder
				{
					OFFSET 4.003559 0.557467 10.267899
					CHANNELS 3 Xrotation Yrotation Zrotation
					JOINT LeftArm
					{
						OFFSET 0.000000 -0.000003 13.467300
						CHANNELS 3 Xrotation Yrotation Zrotation
						JOINT LeftArmRoll
						{
							OFFSET 0.000000 -0.000001 6.798569
							CHANNELS 3 Xrotation Yrotation Zrotation
							JOINT LeftForeArm
							{
								OFFSET 0.000000 -0.000003 19.801796
								CHANNELS 3 Xrotation Yrotation Zrotation
								JOINT LeftForeArmRoll
								{
									OFFSET 0.000000 -0.000002 7.629044
									CHANNELS 3 Xrotation Yrotation Zrotation
									JOINT LeftHand
									{
										OFFSET 0.000000 -0.000002 15.309799
										CHANNELS 3 Xrotation Yrotation Zrotation
										End Site
										{
											OFFSET 0.000000 0.000000 0.100006
										}
									}
								}
							}
						}
					}
				}
			}
		}
	}
	JOINT RightUpLeg
	{
		OFFSET -6.626091 1.019270 -1.215050
		CHANNELS 3 Xrotation Yrotation Zrotation
		JOINT RightUpLegRoll
		{
			OFFSET 0.000000 -0.000003 17.951698
			CHANNELS 3 Xrotation Yrotation Zrotation
			JOINT RightLeg
			{
				OFFSET 0.000000 0.000004 -22.230396
				CHANNELS 3 Xrotation Yrotation Zrotation
				JOINT RightLegRoll
				{
					OFFSET 0.000000 -0.000004 22.303196
					CHANNELS 3 Xrotation Yrotation Zrotation
					JOINT RightFoot
					{
						OFFSET 0.000000 -0.000003 18.563599
						CHANNELS 3 Xrotation Yrotation Zrotation
						JOINT RightToeBase
						{
							OFFSET 0.000000 -0.000003 15.518303
							CHANNELS 3 Xrotation Yrotation Zrotation
							End Site
							{
								OFFSET 0.006577 0.866261 7.515388
							}
						}
					}
				}
			}
		}
	}
	JOINT LeftUpLeg
	{
		OFFSET 6.626091 1.019270 -1.215050
		CHANNELS 3 Xrotation Yrotation Zrotation
		JOINT LeftUpLegRoll
		{
			OFFSET 0.000000 -0.000003 17.951797
			CHANNELS 3 Xrotation Yrotation Zrotation
			JOINT LeftLeg
			{
				OFFSET 0.000000 -0.000004 22.230301
				CHANNELS 3 Xrotation Yrotation Zrotation
				JOINT LeftLegRoll
				{
					OFFSET 0.000000 -0.000004 22.509300
					CHANNELS 3 Xrotation Yrotation Zrotation
					JOINT LeftFoot
					{
						OFFSET 0.000000 -0.000003 18.357506
						CHANNELS 3 Xrotation Yrotation Zrotation
						JOINT LeftToeBase
						{
							OFFSET 0.000000 -0.000002 15.518295
							CHANNELS 3 Xrotation Yrotation Zrotation
							End Site
							{
								OFFSET -0.029476 0.866261 7.515381
							}
						}
					}
				}
			}
		}
	}
}
MOTION
Frames: 8
Frame Time: 0.041667
55.491497 -21.783604 94.204712 1.917259 1.137513 1.642724 -2.538677 0.208713 -0.228250 -1.073749 0.422065 -0.425977 0.571325 0.416927 -0.430996 11.686109 0.626841 -2.771512 1.412546 -4.873216 -2.279429 -9.710282 -78.335166 -12.550543 -74.234177 -109.101180 -60.899155 -0.000002 0.000001 -0.000002 0.456535 -11.003363 -0.498610 0.000002 0.000001 -3.009529 -5.000221 -7.998754 0.000169 -15.169522 65.791893 18.085955 -33.187377 104.525397 5.316106 0.000002 0.000001 0.000002 3.568325 -1.474946 0.877701 -0.000003 0.000010 3.001389 -5.000175 8.000078 0.000008 -3.577222 176.671490 -3.437703 179.999991 -0.000005 -0.892004 174.843144 -1.845504 -0.410513 -0.000002 -0.000000 0.040953 68.674041 6.859650 2.225648 25.456960 -7.360396 0.000008 -6.273679 177.688901 1.437383 -0.000004 -0.000005 -0.926890 -9.536808 4.375730 0.597487 -0.000002 -0.000005 -0.112778 70.713345 -6.789378 -2.300831 25.456945 7.358617 0.000000 
55.485397 -21.757801 94.210602 1.937521 1.137989 1.656915 -2.536907 0.208937 -0.226303 -1.070209 0.423445 -0.423760 0.574865 0.418333 -0.428795 11.638253 0.602439 -2.777241 1.454881 -4.857160 -2.284387 -9.788763 -78.350336 -12.634695 -74.245481 -109.139101 -60.986213 -0.000005 0.000001 -0.000002 0.499132 -11.044594 -0.491341 0.000002 0.000000 -3.009529 -5.000220 -7.998754 0.000168 -15.123502 65.783744 18.033277 -33.357039 104.591206 5.561561 0.000002 0.000001 0.000004 3.553736 -1.434507 0.877045 -0.000004 0.000010 3.001392 -5.000175 8.000078 0.000010 -3.604703 176.675574 -3.435649 179.999991 -0.000005 -0.892005 174.846955 -1.850495 -0.410839 -0.000003 0.000000 0.040900 68.672566 6.859660 2.225643 25.456959 -7.360395 0.000008 -6.317279 177.683137 1.435250 -0.000004 -0.000005 -0.926851 -9.552902 4.378622 0.599062 -0.000002 -0.000005 -0.112778 70.710770 -6.789318 -2.300879 25.456943 7.358615 0.000001 
55.481392 -21.748207 94.209106 1.957135 1.138896 1.671814 -2.534934 0.209098 -0.224250 -1.066280 0.424795 -0.421398 0.578797 0.419713 -0.426452 11.588796 0.575994 -2.783595 1.498280 -4.840222 -2.289931 -9.872422 -78.366018 -12.724375 -74.257222 -109.176879 -61.072929 0.000000 -0.000000 -0.000002 0.542524 -11.085318 -0.484010 0.000000 0.000000 -3.009531 -5.000223 -7.998753 0.000168 -15.076078 65.772973 17.978899 -33.513102 104.661024 5.792977 0.000002 0.000001 0.000003 3.540890 -1.394774 0.876510 -0.000003 0.000010 3.001393 -5.000175 8.000078 0.000007 -3.630523 176.678662 -3.433581 179.999991 -0.000005 -0.892004 174.852474 -1.855490 -0.410112 -0.000002 0.000001 0.040821 68.670681 6.859677 2.225462 25.456965 -7.360395 0.000007 -6.361019 177.677372 1.432982 -0.000004 -0.000005 -0.926853 -9.570307 4.381239 0.600710 -0.000002 -0.000005 -0.112778 70.708434 -6.789329 -2.300923 25.456945 7.358616 0.000000 
55.471497 -21.743706 94.213806 1.976311 1.140112 1.687211 -2.532833 0.209215 -0.222123 -1.062069 0.426127 -0.418936 0.583004 0.421074 -0.424008 11.538136 0.548123 -2.790426 1.542398 -4.822660 -2.295907 -9.959989 -78.382158 -12.818225 -74.268841 -109.214568 -61.158921 -0.000003 0.000000 -0.000002 0.586477 -11.125634 -0.476617 0.000002 0.000000 -3.009530 -5.000220 -7.998753 0.000169 -15.027666 65.760337 17.923357 -33.662499 104.732454 6.017661 0.000002 0.000001 0.000001 3.529248 -1.355535 0.876063 -0.000003 0.000009 3.001389 -5.000175 8.000078 0.000011 -3.655179 176.682746 -3.431597 179.999991 -0.000005 -0.892004 174.859168 -1.860490 -0.410343 -0.000002 0.000000 0.040724 68.668454 6.859637 2.225494 25.456960 -7.360395 0.000008 -6.404840 177.671621 1.430627 -0.000004 -0.000004 -0.926885 -9.588644 4.383667 0.602410 -0.000002 -0.000005 -0.112778 70.706419 -6.789341 -2.300850 25.456941 7.358615 -0.000000 
55.468796 -21.728104 94.214111 1.995225 1.141508 1.702896 -2.530644 0.209309 -0.219955 -1.057709 0.427447 -0.416417 0.587368 0.422426 -0.421506 11.486881 0.519444 -2.797537 1.586947 -4.804755 -2.302134 -10.049870 -78.398503 -12.914517 -74.280964 -109.252188 -61.245152 -0.000002 -0.000000 -0.000003 0.630747 -11.165644 -0.469166 0.000002 0.000000 -3.009529 -5.000220 -7.998753 0.000168 -14.978661 65.746527 17.867104 -33.807927 104.804704 6.238299 0.000002 0.000001 0.000001 3.518301 -1.316596 0.875671 -0.000003 0.000010 3.001390 -5.000175 8.000078 0.000010 -3.679179 176.685833 -3.429560 179.999991 -0.000005 -0.892004 174.866544 -1.865491 -0.409554 -0.000003 0.000001 0.040616 68.665927 6.859647 2.225352 25.456965 -7.360396 0.000008 -6.448723 177.665843 1.428214 -0.000005 -0.000004 -0.926933 -9.607502 4.385987 0.604140 -0.000002 -0.000005 -0.112778 70.704602 -6.789290 -2.300952 25.456947 7.358616 0.000001 
55.466095 -21.704510 94.214111 2.014084 1.142954 1.718648 -2.528445 0.209395 -0.217773 -1.053310 0.428765 -0.413884 0.591771 0.423775 -0.418989 11.435526 0.490573 -2.804772 1.631589 -4.786778 -2.308451 -10.140396 -78.414813 -13.011504 -74.292507 -109.289871 -61.330768 -0.000003 -0.000000 -0.000004 0.675111 -11.205745 -0.461649 0.000003 0.000001 -3.009528 -5.000223 -7.998753 0.000168 -14.929598 65.732504 17.810774 -33.950026 104.877883 6.455346 0.000003 0.000001 0.000004 3.507524 -1.277714 0.875315 -0.000003 0.000011 3.001392 -5.000175 8.000078 0.000007 -3.703019 176.688907 -3.427535 179.999991 -0.000005 -0.892004 174.874085 -1.871486 -0.409843 -0.000002 -0.000000 0.040506 68.663400 6.859660 2.225310 25.456957 -7.360396 0.000008 -6.492625 177.659094 1.425922 -0.000004 -0.000005 -0.926985 -9.626490 4.388286 0.605879 -0.000002 -0.000005 -0.112778 70.702778 -6.789273 -2.300957 25.456943 7.358617 0.000001 
55.458496 -21.693409 94.206314 2.033054 1.144330 1.734261 -2.526285 0.209494 -0.215615 -1.048980 0.430089 -0.411380 0.596096 0.425129 -0.416502 11.384376 0.462125 -2.811929 1.676022 -4.768987 -2.314689 -10.230201 -78.431021 -13.107708 -74.303661 -109.327484 -61.416077 -0.000004 -0.000000 -0.000004 0.719328 -11.245839 -0.454068 0.000003 0.000000 -3.009531 -5.000221 -7.998753 0.000168 -14.880896 65.719042 17.754875 -34.091373 104.951246 6.671698 0.000002 0.000002 0.000003 3.496407 -1.238690 0.874941 -0.000003 0.000011 3.001393 -5.000175 8.000079 0.000010 -3.727177 176.691994 -3.425505 179.999991 -0.000005 -0.892004 174.881297 -1.876487 -0.409057 -0.000003 0.000000 0.040400 68.660982 6.859639 2.225258 25.456960 -7.360396 0.000008 -6.536486 177.653343 1.423546 -0.000005 -0.000004 -0.927029 -9.645216 4.390627 0.607604 -0.000002 -0.000005 -0.112778 70.700873 -6.789288 -2.300878 25.456943 7.358616 0.000001 
55.450195 -21.685909 94.209305 2.052349 1.145495 1.749513 -2.524216 0.209625 -0.213510 -1.044850 0.431427 -0.408948 0.600225 0.426498 -0.414087 11.334133 0.434715 -2.818843 1.719920 -4.751658 -2.320665 -10.317699 -78.446895 -13.201430 -74.314316 -109.365249 -61.501346 -0.000004 0.000000 -0.000003 0.763171 -11.286230 -0.446426 0.000004 0.000001 -3.009530 -5.000224 -7.998754 0.000169 -14.832891 65.706734 17.699809 -34.236822 105.023222 6.892084 0.000002 0.000002 0.000004 3.484433 -1.199319 0.874540 -0.000003 0.000010 3.001394 -5.000175 8.000080 0.000010 -3.752176 176.695095 -3.423459 179.999991 -0.000005 -0.892005 174.887663 -1.881499 -0.409294 -0.000003 0.000001 0.040309 68.658769 6.859672 2.225100 25.456960 -7.360396 0.000008 -6.580296 177.646581 1.421362 -0.000004 -0.000004 -0.927052 -9.663281 4.393114 0.609297 -0.000001 -0.000005 -0.112778 70.698735 -6.789267 -2.300904 25.456947 7.358617 0.000000 
